<svg version="1.1" id="Layer_1" xmlns="http://www.w3.org/2000/svg" xmlns:xlink="http://www.w3.org/1999/xlink" x="0px" y="0px"
	 width="60"  height="60" viewBox="0 0 1024 1024" enable-background="new 0 0 1024 1024" xml:space="preserve">
<path fill="#87D04C" opacity="1.000000" stroke="none"
	d="
M412.513123,417.508209 
	C436.041168,394.961914 463.768188,381.678314 495.668365,377.935089 
	C571.472717,369.040100 638.639160,418.412933 654.984802,490.311798 
	C671.950439,564.937988 626.864380,640.892883 553.135986,661.671570 
	C470.607208,684.930542 386.613190,633.584900 370.826508,549.217407 
	C361.335815,498.497070 375.878448,454.463867 412.513123,417.508209 
M548.168274,492.668182 
	C532.277588,508.571136 516.326599,524.414673 500.550964,540.430969 
	C497.659576,543.366455 495.771820,543.469666 492.882904,540.457764 
	C485.161499,532.407654 477.194122,524.591370 469.253052,516.754639 
	C461.955017,509.552399 452.050476,509.000885 445.633545,515.322693 
	C439.231689,521.629578 439.674652,531.758057 446.819397,538.954529 
	C459.725403,551.954102 472.676849,564.908875 485.668732,577.822632 
	C492.745972,584.857361 500.513947,584.959229 507.635925,577.874207 
	C531.956055,553.680176 556.212219,529.421448 580.403564,505.098755 
	C587.001160,498.465302 586.980957,489.147034 580.730652,482.761322 
	C574.676331,476.575897 564.966614,476.477234 558.247620,482.673187 
	C554.944580,485.719055 551.854614,488.995911 548.168274,492.668182 
z"/>
<path fill="#87D04C" opacity="1.000000" stroke="none"
	d="
M768.602295,467.327576 
	C762.767517,441.240967 753.749695,416.796783 740.691162,393.915588 
	C738.966064,390.892883 739.393982,388.848267 741.824158,386.507721 
	C748.183472,380.382721 754.326233,374.033569 760.609985,367.829132 
	C764.599060,363.890411 765.437195,363.927948 768.382996,368.798859 
	C784.719055,395.809937 796.273987,424.752472 803.304688,455.524811 
	C808.515808,478.333160 811.316223,501.446686 810.926941,524.810425 
	C810.035278,578.330017 796.357117,628.373291 768.965332,674.514282 
	C765.492249,680.364624 764.776062,680.407898 759.910522,675.552002 
	C753.777771,669.431396 747.703613,663.249939 741.472473,657.231140 
	C739.168518,655.005676 738.914062,653.063782 740.518494,650.234314 
	C756.203369,622.572571 766.551514,592.979736 771.307800,561.568909 
	C775.012878,537.100037 775.323120,512.490723 771.942566,487.916077 
	C771.014343,481.169037 769.763733,474.466400 768.602295,467.327576 
z"/>
<path fill="#87D04C" opacity="1.000000" stroke="none"
	d="
M553.718079,817.069702 
	C536.392212,819.044678 519.493713,820.045044 502.469910,819.432373 
	C454.652893,817.711731 409.922821,805.135620 368.119507,781.969604 
	C364.770447,780.113586 361.486877,778.136902 358.205109,776.162720 
	C355.824677,774.730835 355.470917,772.997620 357.543640,770.929077 
	C364.618195,763.868530 371.721558,756.835693 378.705536,749.686340 
	C381.322266,747.007751 383.429108,748.638000 385.791473,749.949768 
	C412.834167,764.965332 441.581024,775.042114 472.180359,779.789795 
	C507.160248,785.217224 541.847290,783.866394 576.215515,775.349609 
	C598.639465,769.792603 620.007141,761.468872 640.093262,750.036194 
	C643.730530,747.965942 646.141357,747.856384 649.139465,751.086121 
	C655.029541,757.431213 661.345093,763.380005 667.443176,769.533813 
	C671.359497,773.485840 671.304565,774.319702 666.386475,777.299561 
	C637.921936,794.546631 607.321899,806.399109 574.776245,813.238037 
	C567.942017,814.674072 561.034912,815.763306 553.718079,817.069702 
z"/>
<path fill="#87D04C" opacity="1.000000" stroke="none"
	d="
M485.918701,225.700592 
	C503.342194,224.338058 520.279480,224.274979 537.271545,225.556686 
	C573.228455,228.268875 607.381165,237.565430 640.015564,252.722076 
	C649.089050,256.936157 657.897705,261.655334 666.453674,266.831665 
	C671.219055,269.714722 671.279114,270.565155 667.284363,274.614960 
	C661.316284,280.665192 655.133667,286.512360 649.347351,292.729767 
	C646.467834,295.823730 644.146484,296.222229 640.361328,294.087158 
	C616.539062,280.649902 591.200134,271.179169 564.314148,265.994598 
	C523.764709,258.175171 483.538177,259.401489 443.657135,270.372742 
	C423.325958,275.965851 403.902985,283.755737 385.639038,294.307312 
	C382.308197,296.231628 380.081207,295.937622 377.434296,293.135498 
	C371.486725,286.839142 365.202026,280.862610 359.118835,274.692535 
	C355.013123,270.528168 355.033844,269.837524 359.831177,266.938843 
	C388.753784,249.463028 419.770935,237.359680 452.907410,230.642609 
	C463.683716,228.458160 474.511353,226.734085 485.918701,225.700592 
z"/>
<path fill="#87D04C" opacity="1.000000" stroke="none"
	d="
M252.331116,378.405090 
	C254.628342,374.498779 256.718048,370.896545 258.838684,367.312653 
	C260.393951,364.684265 262.229401,364.408203 264.440033,366.627167 
	C271.377228,373.590546 278.289185,380.580811 285.331940,387.436310 
	C287.688202,389.729950 286.952789,391.671082 285.603210,394.062622 
	C272.666748,416.987274 263.301849,441.295288 257.981293,467.085693 
	C245.007370,529.974670 253.511200,589.820374 283.747223,646.520447 
	C288.522491,655.475220 288.351379,653.350708 281.716064,660.161072 
	C276.368347,665.649841 270.799866,670.925110 265.503601,676.461853 
	C262.637451,679.458069 260.729584,679.831177 258.329010,675.825928 
	C238.756180,643.169800 225.845856,608.097107 219.617752,570.543091 
	C216.476471,551.601868 215.128204,532.538330 215.724060,513.356934 
	C217.207397,465.605682 229.506058,420.759186 252.331116,378.405090 
z"/>
<path fill="#000000" opacity="1.000000" stroke="none"
	d="
M740.309814,770.309692 
	C737.232422,773.385498 734.408997,776.215393 731.566772,779.026428 
	C727.099548,783.444824 726.479736,783.462585 721.903320,778.890442 
	C700.457581,757.464905 679.017395,736.033813 657.629395,714.550720 
	C656.352722,713.268372 655.547546,711.516541 653.504517,708.459106 
	C648.692078,713.934448 645.106628,718.056091 641.471313,722.133362 
	C639.367065,724.493408 636.855591,726.231873 633.566650,724.992615 
	C630.206421,723.726501 629.846497,720.649231 629.723999,717.537964 
	C628.794006,693.920471 627.805786,670.305237 626.919678,646.686096 
	C626.570557,637.380005 628.496216,635.435059 637.822327,635.788025 
	C661.941345,636.700745 686.055603,637.740051 710.173218,638.691040 
	C712.902954,638.798706 715.145874,639.644836 716.161560,642.313416 
	C717.152527,644.917297 716.300049,647.242188 714.415649,649.171265 
	C711.389893,652.268738 708.476501,655.504883 705.212280,658.332275 
	C701.991211,661.122314 702.394653,663.072083 705.298157,665.947327 
	C726.482727,686.926025 747.513062,708.060303 768.592163,729.145447 
	C769.298706,729.852234 769.964661,730.606323 770.720154,731.256287 
	C774.195801,734.245911 773.749268,736.957520 770.608398,740.043579 
	C760.510132,749.965515 750.561646,760.039795 740.309814,770.309692 
M661.557922,709.935364 
	C683.040710,731.503784 704.523499,753.072205 725.764038,774.397339 
	C739.178650,761.002625 752.075806,748.124634 765.103210,735.116516 
	C764.649231,733.543762 763.075378,732.471130 761.803833,731.197083 
	C740.395264,709.744629 718.969788,688.309082 697.536133,666.881714 
	C693.202209,662.549011 693.126160,661.465759 697.478149,657.148376 
	C701.224182,653.432129 705.089111,649.835876 709.767578,645.357483 
	C706.432190,644.915894 704.512756,644.500610 702.580811,644.430725 
	C681.622375,643.672485 660.663086,642.930298 639.701233,642.273193 
	C633.409607,642.075928 633.159546,642.288818 633.348816,648.680420 
	C633.954895,669.145752 634.672791,689.608032 635.416748,710.068909 
	C635.498474,712.315308 636.028259,714.545471 636.430176,717.338501 
	C640.373474,714.923889 642.645630,711.809509 645.379089,709.229553 
	C652.984802,702.050720 651.662109,699.664062 661.557922,709.935364 
z"/>
<path fill="#000000" opacity="1.000000" stroke="none"
	d="
M696.070557,291.070862
	C705.041138,282.113220 713.900208,273.538177 722.420593,264.638916
	C725.933838,260.969391 728.324585,261.770294 731.466187,264.956665
	C744.210938,277.882782 757.120850,290.645813 769.947510,303.491364
	C774.482910,308.033539 774.469482,309.091980 769.914795,313.647064
	C748.600464,334.963074 727.358887,356.353241 705.871033,377.492889
	C702.233826,381.071136 701.974060,383.353973 705.915894,386.585022
	C708.991699,389.106140 711.619812,392.175537 714.429749,395.018158
	C716.350464,396.961212 717.129761,399.282227 716.087463,401.868561
	C715.015869,404.527649 712.715393,405.265564 710.010010,405.359558
	C691.713623,405.995239 673.418335,406.665771 655.124023,407.360474
	C648.639221,407.606720 642.160828,408.075439 635.674622,408.217468
	C629.013000,408.363342 626.668884,405.911713 626.919006,399.151459
	C627.823303,374.703827 628.801880,350.258942 629.744080,325.812683
	C629.851807,323.015167 630.440369,320.391876 633.273926,319.175018
	C636.325684,317.864410 638.804077,319.306549 640.879456,321.450470
	C644.800415,325.500824 648.640320,329.629669 653.193787,334.444885
	C667.810669,319.658844 681.816528,305.490814 696.070557,291.070862
M727.152466,270.027100
	C724.730164,269.888824 723.818542,272.006134 722.487427,273.331482
	C701.013245,294.712982 679.599731,316.155457 658.161072,337.572693
	C653.525269,342.203857 652.969177,342.126923 648.105652,337.525757
	C644.427429,334.045990 641.285583,329.956970 637.109924,327.110870
	C635.881836,328.113556 636.059204,329.193726 636.018860,330.134216
	C635.092224,351.737946 634.140503,373.340912 633.334473,394.949280
	C633.073792,401.938171 633.258667,402.023041 640.060059,401.809998
	C662.016602,401.122223 683.971313,400.375336 705.926147,399.633087
	C706.879272,399.600830 707.972717,399.812836 708.603638,398.726135
	C708.497192,398.414764 708.478516,398.024567 708.274536,397.813507
	C705.036255,394.462799 701.828979,391.079102 698.505005,387.814606
	C692.969482,382.378113 692.933594,381.859589 698.487305,376.306580
	C718.736755,356.059662 738.997498,335.823914 759.222778,315.552826
	C761.417480,313.353271 763.906067,311.356476 765.335571,308.388824
	C752.707886,295.620850 740.202576,282.976593 727.152466,270.027100
z"/>
<path fill="#000000" opacity="1.000000" stroke="none"
	d="
M285.514801,769.484741
	C275.489807,759.455261 265.819397,749.567749 255.884918,739.953125
	C252.381989,736.563049 252.677399,734.244629 256.021027,730.934753
	C277.211670,709.958130 298.249512,688.827087 319.305511,667.714844
	C321.042816,665.972839 323.131226,664.499878 324.799438,660.890686
	C320.875549,657.248047 316.614319,653.338318 312.409393,649.368958
	C310.358887,647.433289 309.006104,645.175964 310.296204,642.249878
	C311.553345,639.398865 314.041565,638.796875 316.882782,638.685730
	C340.839294,637.749146 364.792725,636.734192 388.749817,635.813293
	C397.772614,635.466431 399.542175,637.076172 399.280182,645.939819
	C398.601257,668.905334 397.831879,691.869263 396.869904,714.824280
	C396.719482,718.414795 397.579681,723.011047 392.999878,724.849976
	C388.138977,726.801819 385.764160,722.670471 383.044495,719.941650
	C379.998505,716.885437 377.223206,713.559326 374.329468,710.350037
	C370.530823,712.480225 368.434509,715.073608 366.129303,717.373535
	C345.845520,737.611206 325.603302,757.890564 305.347626,778.156372
	C299.918060,783.588745 299.679230,783.592651 294.252350,778.210266
	C291.413544,775.394775 288.593781,772.560181 285.514801,769.484741
M377.005310,705.407959
	C381.268860,709.617126 385.532410,713.826233 390.633545,718.862244
	C391.414276,693.920349 392.102112,670.477966 392.928619,647.040527
	C393.060730,643.294067 391.649689,642.036743 387.989471,642.183289
	C374.689087,642.715698 361.348297,642.623352 348.086945,643.620056
	C338.036560,644.375488 327.886963,643.407593 316.275177,645.488647
	C320.841217,649.717834 324.664856,653.103821 328.309662,656.672485
	C333.549347,661.802734 333.493927,662.271118 328.356720,667.405701
	C307.160065,688.591858 285.957886,709.772461 264.781891,730.979187
	C263.395905,732.367065 261.666443,733.509277 260.965424,735.565491
	C261.190063,735.993835 261.327759,736.516113 261.657410,736.847351
	C273.517090,748.767639 285.415375,760.649597 297.247986,772.596619
	C299.060577,774.426758 300.466644,774.423889 302.255493,772.593201
	C306.559570,768.188477 311.001312,763.918701 315.350739,759.557678
	C333.101135,741.760132 350.845428,723.956421 368.570312,706.133484
	C370.952484,703.738098 373.259094,701.528748 377.005310,705.407959
z"/>
<path fill="#000000" opacity="1.000000" stroke="none"
	d="
M379.540985,327.532196
	C381.791595,325.279572 383.791779,323.274353 385.800140,321.277344
	C387.810822,319.278046 390.113525,317.972351 392.980743,319.144623
	C395.635559,320.230072 396.129974,322.583099 396.472931,325.242218
	C397.927032,336.517273 397.022095,347.868500 397.824463,359.176453
	C398.790100,372.786530 398.953033,386.457520 399.287415,400.106476
	C399.434875,406.124512 397.190155,408.432007 391.209564,408.222687
	C366.087158,407.343323 340.970581,406.298615 315.851776,405.316406
	C313.289551,405.216217 311.407227,404.081268 310.331360,401.714050
	C309.191833,399.206757 310.066833,397.062897 311.859497,395.371490
	C316.213409,391.263306 320.698975,387.294647 324.817932,382.924530
	C323.954224,380.120087 322.060425,379.083160 320.701355,377.719757
	C299.412109,356.363068 278.081421,335.047791 256.767487,313.715759
	C251.796707,308.740753 251.821243,308.321198 256.766846,303.386658
	C269.386047,290.795685 281.989838,278.189240 294.607239,265.596405
	C299.659851,260.553619 299.998657,260.520996 304.948120,265.468781
	C326.392365,286.905945 347.821014,308.358734 369.218964,329.842102
	C370.381165,331.008942 371.214172,332.503662 372.183533,333.822754
	C375.655579,332.056244 377.196442,329.587311 379.540985,327.532196
M345.184174,314.318512
	C330.171234,299.287048 315.158264,284.255554 300.702209,269.781677
	C287.199036,283.195160 274.253174,296.055054 259.961182,310.252106
	C261.812866,311.547363 264.278412,312.796631 266.144135,314.649811
	C287.055786,335.420807 307.882507,356.277435 328.713531,377.129517
	C333.402985,381.823639 333.456207,382.480988 328.571899,387.113342
	C324.754608,390.733795 320.671173,394.073639 316.705994,397.538116
	C317.111145,398.035614 317.516296,398.533112 317.921448,399.030609
	C319.207825,399.233398 320.489380,399.572998 321.781311,399.618652
	C343.404205,400.382812 365.027435,401.142975 386.653046,401.825165
	C392.869232,402.021271 393.084320,401.793243 392.882599,395.370300
	C392.177277,372.913574 391.394440,350.459320 390.632538,328.004364
	C390.611176,327.375153 390.647186,326.659637 388.917511,326.352936
	C385.238739,330.185089 381.150543,334.317413 377.212891,338.588531
	C374.447205,341.588409 372.152802,341.456207 369.305664,338.514801
	C361.548279,330.500671 353.579407,322.691284 345.184174,314.318512
z"/>
</svg>